<svg xmlns="http://www.w3.org/2000/svg" xmlns:xlink="http://www.w3.org/1999/xlink" viewBox="0 0 430 430" width="430" height="430" preserveAspectRatio="xMidYMid meet" style="width: 100%; height: 100%; transform: translate3d(0px, 0px, 0px); content-visibility: visible;"><defs><clipPath id="__lottie_element_10"><rect width="430" height="430" x="0" y="0"/></clipPath><clipPath id="__lottie_element_12"><path d="M0,0 L430,0 L430,430 L0,430z"/></clipPath><filter id="__lottie_element_18" x="-100%" y="-100%" width="300%" height="300%"><feGaussianBlur result="filter_result_0" stdDeviation="52.5 52.5" edgeMode="wrap"/></filter><g id="__lottie_element_19"><g clip-path="url(#__lottie_element_20)" transform="matrix(1,0,0,1,0,0)" opacity="1" style="display: block;"><g clip-path="url(#__lottie_element_24)" transform="matrix(0.8999999761581421,0,0,0.8999999761581421,21.5,21.5)" opacity="1" style="display: block;"><g transform="matrix(3.690000057220459,0,0,3.690000057220459,-252.48793029785156,214.997314453125)" opacity="1" style="display: block;"><g opacity="1" transform="matrix(1,0,0,1,0,0)"><path stroke-linecap="round" stroke-linejoin="round" fill-opacity="0" class="secondary" stroke="rgb(8,168,138)" stroke-opacity="1" stroke-width="5.25" d=" M126.66699981689453,50 C109.5328140258789,50 95.15007019042969,27.86480712890625 95.15007019042969,0 C95.15007019042969,-27.883018493652344 109.63800048828125,-50 126.66699981689453,-50"/></g></g><g transform="matrix(3.690000057220459,0,0,3.690000057220459,-252.48793029785156,214.997314453125)" opacity="1" style="display: block;"><g opacity="1" transform="matrix(1,0,0,1,0,0)"><path stroke-linecap="round" stroke-linejoin="round" fill-opacity="0" class="secondary" stroke="rgb(8,168,138)" stroke-opacity="1" stroke-width="5.25" d=" M126.66699981689453,50 C126.1267318725586,41.56869888305664 125.70389556884766,27.61400032043457 125.70389556884766,0 C125.70389556884766,-27.61400032043457 126.1267318725586,-34.82365798950195 126.66699981689453,-50"/></g></g><g transform="matrix(3.690000057220459,0,0,3.690000057220459,-252.48793029785156,214.997314453125)" opacity="1" style="display: block;"><g opacity="1" transform="matrix(1,0,0,1,0,0)"><path stroke-linecap="round" stroke-linejoin="round" fill-opacity="0" class="secondary" stroke="rgb(8,168,138)" stroke-opacity="1" stroke-width="5.25" d=" M126.66699981689453,50 C143.6106719970703,49.68130111694336 157.3466033935547,27.61400032043457 157.3466033935547,0 C157.3466033935547,-27.61400032043457 143.6106719970703,-49.42634201049805 126.66699981689453,-50"/></g></g><g transform="matrix(3.690000057220459,0,0,3.690000057220459,-252.48793029785156,214.997314453125)" opacity="1" style="display: block;"><g opacity="1" transform="matrix(1,0,0,1,0,0)"><path stroke-linecap="round" stroke-linejoin="round" fill-opacity="0" class="secondary" stroke="rgb(8,168,138)" stroke-opacity="1" stroke-width="5.25" d=" M126.66699981689453,50 C146.78895568847656,50 176.326171875,34.24919128417969 176.326171875,0 C176.326171875,-34.730979919433594 143.9637451171875,-50 126.66699981689453,-50"/></g></g><g transform="matrix(3.690000057220459,0,0,3.690000057220459,-252.48793029785156,214.997314453125)" opacity="1" style="display: none;"><g opacity="1" transform="matrix(1,0,0,1,0,0)"><path stroke-linecap="round" stroke-linejoin="round" fill-opacity="0" class="secondary" stroke="rgb(8,168,138)" stroke-opacity="1" stroke-width="5.25" d=" M126.66699981689453,50 C146.5139923095703,50 175.71807861328125,34.29364013671875 175.71807861328125,0 C175.71807861328125,-34.778656005859375 143.71253967285156,-50 126.66699981689453,-50"/></g></g><g transform="matrix(3.690000057220459,0,0,3.690000057220459,-252.48793029785156,214.997314453125)" opacity="1" style="display: none;"><g opacity="1" transform="matrix(1,0,0,1,0,0)"><path stroke-linecap="round" stroke-linejoin="round" fill-opacity="0" class="secondary" stroke="rgb(8,168,138)" stroke-opacity="1" stroke-width="5.25" d=" M126.66699981689453,50 C146.52252197265625,50 175.78282165527344,34.31875991821289 175.78282165527344,0 C175.78282165527344,-34.80560302734375 143.7105255126953,-50 126.66699981689453,-50"/></g></g><g transform="matrix(3.690000057220459,0,0,3.690000057220459,-252.48793029785156,214.997314453125)" opacity="1" style="display: none;"><g opacity="1" transform="matrix(1,0,0,1,0,0)"><path stroke-linecap="round" stroke-linejoin="round" fill-opacity="0" class="secondary" stroke="rgb(8,168,138)" stroke-opacity="1" stroke-width="5.25" d=" M126.66699981689453,50 C146.3517608642578,50 174.48529052734375,33.81538772583008 174.48529052734375,0 C174.48529052734375,-34.26567840576172 143.75088500976562,-50 126.66699981689453,-50"/></g></g><g transform="matrix(3.690000057220459,0,0,3.690000057220459,-252.48793029785156,214.997314453125)" opacity="1" style="display: none;"><g opacity="1" transform="matrix(1,0,0,1,0,0)"><path stroke-linecap="round" stroke-linejoin="round" fill-opacity="0" class="secondary" stroke="rgb(8,168,138)" stroke-opacity="1" stroke-width="5.25" d=" M126.66699981689453,50 C146.46875,50 175.37432861328125,34.16028594970703 175.37432861328125,0 C175.37432861328125,-34.6356201171875 143.72323608398438,-50 126.66699981689453,-50"/></g></g><g transform="matrix(3.690000057220459,0,0,3.690000057220459,-252.48793029785156,214.997314453125)" opacity="1" style="display: none;"><g opacity="1" transform="matrix(1,0,0,1,0,0)"><path stroke-linecap="round" stroke-linejoin="round" fill-opacity="0" class="secondary" stroke="rgb(8,168,138)" stroke-opacity="1" stroke-width="5.25" d=" M126.66699981689453,50 C146.36195373535156,50 174.5627899169922,33.845458984375 174.5627899169922,0 C174.5627899169922,-34.29793167114258 143.74847412109375,-50 126.66699981689453,-50"/></g></g><g transform="matrix(3.690000057220459,0,0,3.690000057220459,-252.48793029785156,214.997314453125)" opacity="1" style="display: none;"><g opacity="1" transform="matrix(1,0,0,1,0,0)"><path stroke-linecap="round" stroke-linejoin="round" fill-opacity="0" class="secondary" stroke="rgb(8,168,138)" stroke-opacity="1" stroke-width="5.25" d=" M126.66699981689453,50 C146.22862243652344,50 173.5496368408203,33.45241165161133 173.5496368408203,0 C173.5496368408203,-33.8763427734375 143.7799835205078,-50 126.66699981689453,-50"/></g></g><g transform="matrix(3.690000057220459,0,0,3.690000057220459,-252.48793029785156,214.997314453125)" opacity="1" style="display: block;"><g opacity="1" transform="matrix(1,0,0,1,0,0)"><path stroke-linecap="round" stroke-linejoin="round" fill-opacity="0" class="secondary" stroke="rgb(8,168,138)" stroke-opacity="1" stroke-width="5.25" d=" M76.66699981689453,0 C76.66699981689453,0 176.66700744628906,0 176.66700744628906,0"/></g></g><g transform="matrix(3.690000057220459,0,0,3.690000057220459,-252.48423767089844,214.997314453125)" opacity="1" style="display: block;"><g opacity="1" transform="matrix(1,0,0,1,0,0)"><path stroke-linecap="round" stroke-linejoin="round" fill-opacity="0" class="secondary" stroke="rgb(8,168,138)" stroke-opacity="1" stroke-width="5.25" d=" M158.9929962158203,-38.13800048828125 C150.2830047607422,-33.577999114990234 139.0030059814453,-30.827999114990234 126.6729965209961,-30.827999114990234 C114.34300231933594,-30.827999114990234 103.06300354003906,-33.577999114990234 94.34300231933594,-38.13800048828125"/></g></g><g transform="matrix(3.690000057220459,0,0,3.690000057220459,-252.48423767089844,214.997314453125)" opacity="1" style="display: block;"><g opacity="1" transform="matrix(1,0,0,1,0,0)"><path stroke-linecap="round" stroke-linejoin="round" fill-opacity="0" class="secondary" stroke="rgb(8,168,138)" stroke-opacity="1" stroke-width="5.25" d=" M94.34300231933594,38.13999938964844 C103.0530014038086,33.58000183105469 114.33300018310547,30.829999923706055 126.66300201416016,30.829999923706055 C138.9929962158203,30.829999923706055 150.2729949951172,33.58000183105469 158.9929962158203,38.13999938964844"/></g></g></g><g transform="matrix(3.321000099182129,0,0,3.321000099182129,-205.7361297607422,215)" opacity="1" style="display: block;"><g opacity="1" transform="matrix(1,0,0,1,0,0)"><path stroke-linecap="round" stroke-linejoin="round" fill-opacity="0" class="primary" stroke="rgb(18,19,49)" stroke-opacity="1" stroke-width="5.25" d=" M176.66700744628906,0 C176.66700744628906,27.61400032043457 154.281005859375,50 126.66699981689453,50 C99.0530014038086,50 76.66699981689453,27.61400032043457 76.66699981689453,0 C76.66699981689453,-27.61400032043457 99.0530014038086,-50 126.66699981689453,-50 C154.281005859375,-50 176.66700744628906,-27.61400032043457 176.66700744628906,0z"/></g></g></g></g><clipPath id="__lottie_element_20"><path d="M0,0 L430,0 L430,430 L0,430z"/></clipPath><mask id="__lottie_element_19_1" mask-type="alpha"><use xmlns:ns1="http://www.w3.org/1999/xlink" ns1:href="#__lottie_element_19"/></mask><clipPath id="__lottie_element_24"><path d="M0,0 L430,0 L430,430 L0,430z"/></clipPath></defs><g clip-path="url(#__lottie_element_10)"><g clip-path="url(#__lottie_element_12)" transform="matrix(1,0,0,1,0,0)" opacity="1" style="display: block;"><g mask="url(#__lottie_element_19_1)" style="display: block;"><g filter="url(#__lottie_element_18)" transform="matrix(-0.4510858654975891,-2.3572275638580322,2.3572275638580322,-0.4510858654975891,271.9410095214844,220.4600067138672)" opacity="1"><g class="design" opacity="1" transform="matrix(1,0,0,1,0,0)"><path class="primary" fill="rgb(74,224,235)" fill-opacity="1" d=" M0,-250 C137.97500610351562,-250 250,-137.97500610351562 250,0 C250,137.97500610351562 137.97500610351562,250 0,250 C-137.97500610351562,250 -250,137.97500610351562 -250,0 C-250,-137.97500610351562 -137.97500610351562,-250 0,-250z"/></g><g class="design" opacity="1" transform="matrix(1,0,0,1,113.24199676513672,-118.88400268554688)"><path class="secondary" fill="rgb(202,94,237)" fill-opacity="1" d=" M0,-176.5 C97.47799682617188,-176.5 176.5,-97.47799682617188 176.5,0 C176.5,97.47799682617188 97.47799682617188,176.5 0,176.5 C-43.948001861572266,176.5 -74.39600372314453,142.4429931640625 -105.29000091552734,115.86900329589844 C-142.92100524902344,83.5 -176.5,53.53099822998047 -176.5,0 C-176.5,-97.47799682617188 -97.47799682617188,-176.5 0,-176.5z"/></g></g></g></g></g></svg>