<?xml version="1.0" standalone="no"?>
<!DOCTYPE svg PUBLIC "-//W3C//DTD SVG 20010904//EN"
 "http://www.w3.org/TR/2001/REC-SVG-20010904/DTD/svg10.dtd">
<svg version="1.0" xmlns="http://www.w3.org/2000/svg"
 width="512.000000pt" height="512.000000pt" viewBox="0 0 512.000000 512.000000"
 preserveAspectRatio="xMidYMid meet">

<g transform="translate(0.000000,512.000000) scale(0.100000,-0.100000)"
fill="#000000" stroke="none">
<path d="M1544 4885 c-523 -128 -960 -238 -972 -244 -55 -29 -52 101 -52
-2083 0 -1952 1 -2014 19 -2044 10 -17 32 -36 47 -42 37 -14 1917 -472 1940
-472 14 0 1474 351 1884 452 69 17 135 38 147 46 13 8 28 31 33 51 8 24 10
358 8 1043 l-3 1008 -28 27 c-25 25 -36 28 -115 33 l-87 5 -3 93 -3 92 71 0
c39 0 86 6 106 15 66 27 64 -5 64 883 0 544 -3 809 -11 830 -6 17 -21 37 -33
45 -25 17 -2001 498 -2038 496 -12 0 -451 -106 -974 -234z m2071 -236 c385
-93 717 -174 738 -180 l37 -10 0 -697 0 -697 -71 3 c-41 2 -83 -1 -100 -9 -54
-22 -59 -45 -59 -294 0 -299 3 -305 149 -305 l81 0 0 -900 0 -899 -37 -10
c-21 -6 -411 -101 -868 -211 -456 -110 -836 -203 -842 -205 -10 -3 -13 466
-13 2324 l0 2328 143 -34 c78 -19 457 -111 842 -204z m-1195 -2089 c0 -1276
-2 -2320 -5 -2320 -6 0 -1639 397 -1667 406 -17 5 -18 105 -18 1914 l0 1910
23 5 c207 52 1645 403 1655 404 9 1 12 -469 12 -2319z"/>
<path d="M3408 3971 l-33 -29 -3 -479 c-2 -519 -3 -512 53 -545 26 -14 60 -18
204 -20 l172 -3 24 27 c13 15 27 47 30 70 3 24 5 234 3 468 -3 390 -5 428 -21
453 -24 37 -40 42 -206 66 -182 27 -184 27 -223 -8z m242 -552 c0 -289 -2
-321 -16 -315 -9 3 -24 6 -35 6 -18 0 -19 11 -19 309 l0 310 28 4 c15 2 30 5
35 6 4 0 7 -143 7 -320z"/>
<path d="M3565 2220 c-138 -7 -168 -20 -185 -79 -8 -24 -10 -193 -8 -499 l3
-464 34 -30 c32 -29 38 -30 95 -25 34 2 112 13 175 23 97 15 119 22 145 45
l31 27 3 449 c2 307 0 460 -8 486 -15 50 -59 78 -120 75 -25 -1 -99 -4 -165
-8z m85 -525 c0 -334 2 -322 -47 -309 l-23 6 0 309 0 309 35 0 35 0 0 -315z"/>
</g>
</svg>
